<svg xmlns="http://www.w3.org/2000/svg" width="78.754" height="78.754" viewBox="0 0 78.754 78.754">
  <g id="Group_39" data-name="Group 39" transform="translate(-921 -4017)">
    <path id="Path_29" data-name="Path 29" d="M192.009,165.664v27.787l23.154-13.894Z" transform="translate(758.525 3876.818)"/>
    <path id="Path_30" data-name="Path 30" d="M65.628,0h-52.5A13.141,13.141,0,0,0,0,13.126v52.5A13.143,13.143,0,0,0,13.126,78.754h52.5A13.141,13.141,0,0,0,78.754,65.628v-52.5A13.139,13.139,0,0,0,65.628,0ZM60.755,42.189,27.941,61.878a3.282,3.282,0,0,1-4.971-2.812V19.688a3.283,3.283,0,0,1,4.971-2.815L60.755,36.562a3.283,3.283,0,0,1,0,5.628Z" transform="translate(921 4017)"/>
  </g>
</svg>
