<svg xmlns="http://www.w3.org/2000/svg" width="674" height="25.659" viewBox="0 0 674 25.659">
  <g id="Group_4" data-name="Group 4" transform="translate(-17 -0.77)">
    <g id="Group_16" data-name="Group 16" transform="translate(195.336 1.694)">
      <path id="Path_23" data-name="Path 23" d="M685.681,613.4l3.07,9.448h9.934l-8.037,5.839,3.07,9.448-8.037-5.839-8.037,5.839,3.07-9.448-8.037-5.839h9.934Z" transform="translate(-672.677 -613.401)" fill="#f3f2fa"/>
      <path id="Path_24" data-name="Path 24" d="M705.622,613.4l3.07,9.448h9.934l-8.037,5.839,3.07,9.448-8.037-5.839-8.037,5.839,3.07-9.448-8.037-5.839h9.934Z" transform="translate(-663.128 -613.401)" fill="#f3f2fa"/>
      <path id="Path_25" data-name="Path 25" d="M725.564,613.4l3.07,9.448h9.934l-8.037,5.839,3.07,9.448-8.037-5.839-8.037,5.839,3.07-9.448-8.037-5.839h9.934Z" transform="translate(-653.58 -613.401)" fill="#f3f2fa"/>
      <path id="Path_26" data-name="Path 26" d="M745.5,613.4l3.07,9.448h9.934l-8.037,5.839,3.07,9.448L745.5,632.3l-8.037,5.839,3.07-9.448-8.037-5.839h9.934Z" transform="translate(-644.031 -613.401)" fill="#f3f2fa"/>
      <path id="Path_27" data-name="Path 27" d="M765.446,613.4l3.07,9.448h9.934l-8.037,5.839,3.07,9.448-8.037-5.839-8.037,5.839,3.07-9.448-8.037-5.839h9.934Z" transform="translate(-634.482 -613.401)" fill="#f3f2fa"/>
    </g>
    <text id="Rated_9.4_out_of_10" data-name="Rated 9.4 out of 10" transform="translate(17 19.77)" fill="#fff" font-size="18" font-family="Poppins-Bold, Poppins" font-weight="700"><tspan x="0" y="0">Rated 9.4 Out Of 10</tspan></text>
    <text id="based_on_2_389_satisfied_customers." data-name="based on 2,389 satisfied customers." transform="translate(354 19.77)" fill="#fff" font-size="18" font-family="Poppins-Bold, Poppins" font-weight="700"><tspan x="0" y="0">Based On 2,389 Satisfied Customers.</tspan></text>
  </g>
</svg>
