<svg id="Group_4083" data-name="Group 4083" xmlns="http://www.w3.org/2000/svg" xmlns:xlink="http://www.w3.org/1999/xlink" width="301.522" height="85.96" viewBox="0 0 301.522 85.96">
  <defs>
    <clipPath id="clip-path">
      <rect id="Rectangle_2" data-name="Rectangle 2" width="301.522" height="85.96" fill="none"/>
    </clipPath>
  </defs>
  <g id="Group_1" data-name="Group 1" clip-path="url(#clip-path)">
    <path id="Path_1" data-name="Path 1" d="M163.016,1.288h-7.8v16.05h6.79q4.32,0,6.032-.842a4.076,4.076,0,0,0,2.217-2.75h.618v7.969h-.618a4.082,4.082,0,0,0-2.217-2.75q-1.712-.841-6.032-.841h-6.79V30.862a14.724,14.724,0,0,0,.449,4.461,2.522,2.522,0,0,0,1.684,1.6V37.6h-8.586v-.673a2.528,2.528,0,0,0,1.684-1.628,14.811,14.811,0,0,0,.449-4.433V7.237a15.125,15.125,0,0,0-.449-4.461,2.377,2.377,0,0,0-1.684-1.6V.5H173.4l.617,6.846-.617.168a9.149,9.149,0,0,0-3.788-4.826,13.232,13.232,0,0,0-6.594-1.4" transform="translate(-49.408 -0.167)" fill="#f3f2fa"/>
    <path id="Path_2" data-name="Path 2" d="M195.518,30.3a14.511,14.511,0,0,0,.477,4.517,2.6,2.6,0,0,0,1.712,1.655v.674h-8.529v-.674a2.454,2.454,0,0,0,1.711-1.626,16.3,16.3,0,0,0,.421-4.546V8.137a9.075,9.075,0,0,0-.478-3.62,2.2,2.2,0,0,0-1.655-1.15V2.581L194.845,0h.673Z" transform="translate(-62.831)" fill="#f3f2fa"/>
    <path id="Path_3" data-name="Path 3" d="M230.615,34.54l.506.449q-5.556,7.633-12.739,7.632a12.47,12.47,0,0,1-4.461-.842,14.224,14.224,0,0,1-4.1-2.412,11.244,11.244,0,0,1-3.03-4.181,14.249,14.249,0,0,1-1.151-5.808,14.057,14.057,0,0,1,4.181-10.494,13.74,13.74,0,0,1,9.961-4.1,11,11,0,0,1,7.857,2.749,9.284,9.284,0,0,1,3.03,6.734H209.628a18.682,18.682,0,0,0-.168,2.526,12.684,12.684,0,0,0,3.171,8.978,10.89,10.89,0,0,0,8.389,3.423,12.541,12.541,0,0,0,9.6-4.658m-12.57-18.8a7.093,7.093,0,0,0-5.444,2.133A10.884,10.884,0,0,0,209.8,23.6H226.35a10.111,10.111,0,0,0-2.665-5.443,7.324,7.324,0,0,0-5.64-2.413" transform="translate(-68.3 -4.912)" fill="#f3f2fa"/>
    <path id="Path_4" data-name="Path 4" d="M272.374,34.568l.506.449q-5.556,7.633-12.739,7.632a12.621,12.621,0,0,1-4.6-.87,13.892,13.892,0,0,1-4.1-2.47,11.164,11.164,0,0,1-2.947-4.18,14.522,14.522,0,0,1-1.095-5.724,15.489,15.489,0,0,1,1.684-7.014,14.313,14.313,0,0,1,4.657-5.443,10.968,10.968,0,0,1,6.4-2.077,12.786,12.786,0,0,1,6.482,1.628,9.108,9.108,0,0,1,3.788,3.536,1.173,1.173,0,0,1-.281,1.543,1.368,1.368,0,0,1-1.683.14,3.28,3.28,0,0,1-.926-1.01q-.478-.728-.982-1.543a10.617,10.617,0,0,0-1.263-1.628,5.783,5.783,0,0,0-2.02-1.347,7.529,7.529,0,0,0-2.946-.534A7.984,7.984,0,0,0,253.884,19a12.175,12.175,0,0,0-2.665,7.829,12.684,12.684,0,0,0,3.171,8.978,10.89,10.89,0,0,0,8.389,3.423,12.541,12.541,0,0,0,9.6-4.658" transform="translate(-82.17 -4.939)" fill="#f3f2fa"/>
    <path id="Path_5" data-name="Path 5" d="M307.434,33.052q2.02,3.424,4.265,3.48v.616H308.78a5.354,5.354,0,0,1-4.714-2.525L295.593,21.6l-2.02,1.907V30.3a14.514,14.514,0,0,0,.477,4.518,2.6,2.6,0,0,0,1.712,1.655v.673h-8.529v-.673a2.455,2.455,0,0,0,1.711-1.627,16.3,16.3,0,0,0,.421-4.546V8.136a9.075,9.075,0,0,0-.478-3.62,2.2,2.2,0,0,0-1.655-1.15V2.581L292.9,0h.673V22.558q7.688-7.407,8.586-8.249a3.5,3.5,0,0,0,.87-1.375,1.536,1.536,0,0,0-.14-1.374,1.73,1.73,0,0,0-1.572-.618v-.729h6.959v.729a3.6,3.6,0,0,0-2.105.645,36.666,36.666,0,0,0-3.507,3.171l-4.1,3.985Z" transform="translate(-95.398 0)" fill="#f3f2fa"/>
    <path id="Path_6" data-name="Path 6" d="M148.762,109.725v-.674a2.525,2.525,0,0,0,1.684-1.627,14.789,14.789,0,0,0,.449-4.433V79.365a15.1,15.1,0,0,0-.449-4.462,2.378,2.378,0,0,0-1.684-1.6V72.63q8.193-.054,11.055-.055a22.588,22.588,0,0,1,6.734.9,10.857,10.857,0,0,1,4.433,2.442,9.531,9.531,0,0,1,3.03,7.154,10.753,10.753,0,0,1-3.9,8.7q-3.9,3.257-11.139,3.255h-3.76v7.969a14.727,14.727,0,0,0,.449,4.461,2.521,2.521,0,0,0,1.684,1.6v.674Zm6.454-15.489h3.648q5.05,0,7.772-2.61a9.664,9.664,0,0,0,2.722-7.323,13.74,13.74,0,0,0-.589-4.125,10.151,10.151,0,0,0-1.852-3.424,8.287,8.287,0,0,0-3.507-2.412,14.736,14.736,0,0,0-5.332-.87h-2.862Z" transform="translate(-49.408 -24.104)" fill="#f3f2fa"/>
    <path id="Path_7" data-name="Path 7" d="M214.346,110.006a7.026,7.026,0,0,0,.421,2.778,1.685,1.685,0,0,0,1.712.926v.673H214.4a4.216,4.216,0,0,1-4.265-4.265V109.5q-5.218,5.443-10.494,5.443-8.25,0-8.25-9.82V95.136a9.061,9.061,0,0,0-.477-3.62,2.2,2.2,0,0,0-1.656-1.151V89.58l5.668-2.133h.673V104.17q0,4.6,1.4,6.735a5.094,5.094,0,0,0,4.6,2.132q4.209,0,8.529-4.546V95.136a9.074,9.074,0,0,0-.477-3.62A2.2,2.2,0,0,0,208,90.365V89.58l5.612-2.133h.729Z" transform="translate(-62.859 -29.044)" fill="#f3f2fa"/>
    <path id="Path_8" data-name="Path 8" d="M248.164,82.032a10.8,10.8,0,0,1,8.418,3.7,13.617,13.617,0,0,1,3.311,9.428,16.24,16.24,0,0,1-1.571,7.1,13.018,13.018,0,0,1-4.854,5.387,14.14,14.14,0,0,1-7.6,2.161,13.243,13.243,0,0,1-4.882-.926A13.72,13.72,0,0,1,237,106.555l-2.3,2.749h-.786V80.292a9.073,9.073,0,0,0-.477-3.619,2.2,2.2,0,0,0-1.655-1.15v-.785l5.668-2.581h.673V85.624q5.388-3.59,10.045-3.591m-.561,26.655a7.3,7.3,0,0,0,6.2-2.778q2.1-2.777,2.1-7.66a21.018,21.018,0,0,0-.562-4.77,20.251,20.251,0,0,0-1.712-4.658,9.639,9.639,0,0,0-3.226-3.647,8.321,8.321,0,0,0-4.77-1.4,13.4,13.4,0,0,0-7.52,2.694v14.085a8.325,8.325,0,0,0,3.114,5.556,9.353,9.353,0,0,0,6.37,2.581" transform="translate(-76.98 -23.965)" fill="#f3f2fa"/>
    <path id="Path_9" data-name="Path 9" d="M283.156,102.458a14.512,14.512,0,0,0,.477,4.517,2.6,2.6,0,0,0,1.712,1.655v.674h-8.529v-.674A2.454,2.454,0,0,0,278.526,107a16.3,16.3,0,0,0,.421-4.546V80.292a9.091,9.091,0,0,0-.477-3.62,2.2,2.2,0,0,0-1.656-1.15v-.785l5.668-2.581h.673Z" transform="translate(-91.938 -23.965)" fill="#f3f2fa"/>
    <path id="Path_10" data-name="Path 10" d="M299.539,102.458a14.484,14.484,0,0,0,.478,4.517,2.6,2.6,0,0,0,1.711,1.655v.674H293.2v-.674A2.455,2.455,0,0,0,294.909,107a16.285,16.285,0,0,0,.421-4.546V90.505a9.093,9.093,0,0,0-.477-3.592,2.188,2.188,0,0,0-1.655-1.178v-.785l5.668-2.581h.673Zm-.309-25.224a2.981,2.981,0,0,1-4.209,0,2.8,2.8,0,0,1-.87-2.048,2.932,2.932,0,0,1,.87-2.161,3.015,3.015,0,0,1,4.237,0,2.987,2.987,0,0,1,.842,2.161,2.8,2.8,0,0,1-.87,2.048" transform="translate(-97.38 -23.965)" fill="#f3f2fa"/>
    <path id="Path_11" data-name="Path 11" d="M320.9,98.363a5.522,5.522,0,0,0,.786.281q1.57.506,2.386.785a16.1,16.1,0,0,1,2.131.982,7.968,7.968,0,0,1,1.993,1.4,6.671,6.671,0,0,1,1.206,1.881,6.33,6.33,0,0,1,.534,2.637,7.848,7.848,0,0,1-2.61,6,10.3,10.3,0,0,1-7.267,2.412q-5.556,0-8.811-3.142-2.02-1.906-1.4-3.142a1.543,1.543,0,0,1,.393-.449,1.4,1.4,0,0,1,1.375-.253,2.457,2.457,0,0,1,1.178.927q.476.673,1.234,1.6t1.488,1.8a5.788,5.788,0,0,0,1.935,1.459,5.865,5.865,0,0,0,2.609.589,8.088,8.088,0,0,0,5.106-1.487,4.6,4.6,0,0,0,1.908-3.788,4.409,4.409,0,0,0-.476-2.048,6.069,6.069,0,0,0-1.066-1.515,6.676,6.676,0,0,0-1.825-1.178q-1.234-.59-2.076-.9t-2.468-.813a34.937,34.937,0,0,1-3.7-1.375,16.694,16.694,0,0,1-2.974-1.712,5.716,5.716,0,0,1-1.992-2.385,5.37,5.37,0,0,1-.309-3.058,7.865,7.865,0,0,1,2.75-4.742,9.424,9.424,0,0,1,6.51-2.1,12.977,12.977,0,0,1,3.367.421,8.5,8.5,0,0,1,2.5,1.039,9.749,9.749,0,0,1,1.627,1.347,2.571,2.571,0,0,1,.787,1.374,2.638,2.638,0,0,1-.029,1.038,1.1,1.1,0,0,1-1.431.618,2.667,2.667,0,0,1-1.6-1.515,6.187,6.187,0,0,0-6-3.7,6.029,6.029,0,0,0-3.76,1.291,3.945,3.945,0,0,0-1.684,3.255,4.288,4.288,0,0,0,.533,2.132,4.914,4.914,0,0,0,1.74,1.712,15.862,15.862,0,0,0,2.357,1.235q1.149.477,3.058,1.094" transform="translate(-102.861 -28.904)" fill="#f3f2fa"/>
    <path id="Path_12" data-name="Path 12" d="M367.266,102.458a15.347,15.347,0,0,0,.447,4.546,2.525,2.525,0,0,0,1.684,1.626v.674h-8.473v-.674A2.525,2.525,0,0,0,362.606,107a15.327,15.327,0,0,0,.449-4.546V91.515q0-3.983-1.768-5.865a6.269,6.269,0,0,0-4.8-1.88,6.4,6.4,0,0,0-3.283.982,9.618,9.618,0,0,0-2.5,1.992l-.842.954v14.758a14.538,14.538,0,0,0,.476,4.517,2.6,2.6,0,0,0,1.712,1.655v.674h-8.529v-.674a2.453,2.453,0,0,0,1.71-1.626,16.307,16.307,0,0,0,.421-4.546V79.842a9.062,9.062,0,0,0-.478-3.591,2.184,2.184,0,0,0-1.654-1.178v-.785l5.667-2.133h.674V86.464c.073-.112.2-.27.364-.476a13.767,13.767,0,0,1,1.067-1.067,11.971,11.971,0,0,1,1.74-1.346,10.315,10.315,0,0,1,2.468-1.067,10.891,10.891,0,0,1,3.227-.477,8.266,8.266,0,0,1,6.286,2.357q2.244,2.356,2.245,7.014Z" transform="translate(-114.096 -23.965)" fill="#f3f2fa"/>
    <path id="Path_13" data-name="Path 13" d="M410.846,106.7l.506.449q-5.554,7.633-12.739,7.632a12.479,12.479,0,0,1-4.462-.842,14.238,14.238,0,0,1-4.1-2.412,11.234,11.234,0,0,1-3.029-4.181,14.216,14.216,0,0,1-1.151-5.808,14.056,14.056,0,0,1,4.18-10.494,13.743,13.743,0,0,1,9.962-4.1,10.99,10.99,0,0,1,7.855,2.749,9.28,9.28,0,0,1,3.032,6.734H389.86a18.466,18.466,0,0,0-.168,2.526,12.689,12.689,0,0,0,3.17,8.978,10.892,10.892,0,0,0,8.389,3.423,12.541,12.541,0,0,0,9.6-4.658m-12.57-18.8a7.093,7.093,0,0,0-5.444,2.132,10.885,10.885,0,0,0-2.806,5.724h16.555a10.111,10.111,0,0,0-2.665-5.443,7.325,7.325,0,0,0-5.639-2.413" transform="translate(-128.161 -28.877)" fill="#f3f2fa"/>
    <path id="Path_14" data-name="Path 14" d="M441.778,87.375a1.884,1.884,0,0,1,1.485,1.15,1.727,1.727,0,0,1-.167,1.6,1.5,1.5,0,0,1-1.318.729A5.237,5.237,0,0,1,440.4,90.6a10.6,10.6,0,0,0-1.487-.336,6.078,6.078,0,0,0-1.908.2q-2.356.619-3.535,3.928v13.019a14.492,14.492,0,0,0,.477,4.518,2.6,2.6,0,0,0,1.711,1.655v.673h-8.529v-.673a2.456,2.456,0,0,0,1.711-1.628,16.316,16.316,0,0,0,.422-4.546V95.063a9.069,9.069,0,0,0-.478-3.62,2.2,2.2,0,0,0-1.656-1.151v-.785l5.668-2.133h.673v5.107a10.4,10.4,0,0,1,3.647-4.069,5.732,5.732,0,0,1,4.658-1.039" transform="translate(-141.863 -28.971)" fill="#f3f2fa"/>
    <path id="Path_15" data-name="Path 15" d="M17.748,86.1H0V.407H85.515V86.1H34.456V68.833H68.149V17.565H17.3V34.828H51.3V51.987H17.3Z" transform="translate(0 -0.135)" fill="#f3f2fa"/>
  </g>
</svg>
