<svg id="Group_4041" data-name="Group 4041" xmlns="http://www.w3.org/2000/svg" width="417.557" height="249" viewBox="0 0 417.557 249">
  <text id="support_fleckpublisher.com_Toll_Free:_800_800-8008_For_Sales_Inquiry:_012_345-6789_For_Project_Inquiry:_012_345-6789_445_S.Figueroa_Street_Los_Angeles_CA_90071" data-name="support@fleckpublisher.com

Toll Free: (800) 800-8008

For Sales Inquiry: (012) 345-6789

For Project Inquiry: (012) 345-6789

445 S.Figueroa Street, Los Angeles, CA 90071" transform="translate(31.557 19)" fill="#fff" font-size="18" font-family="Poppins-Light, Poppins" font-weight="300"><tspan x="0" y="0">support@fleckpublisher.com</tspan><tspan x="0" y="28"></tspan><tspan x="0" y="56">Toll Free: (800) 800-8008</tspan><tspan x="0" y="84"></tspan><tspan x="0" y="112">For Sales Inquiry: (012) 345-6789</tspan><tspan x="0" y="140"></tspan><tspan x="0" y="168">For Project Inquiry: (012) 345-6789</tspan><tspan x="0" y="196"></tspan><tspan x="0" y="224">445 S.Figueroa Street, Los Angeles, CA 90071</tspan></text>
  <g id="Group_359" data-name="Group 359" transform="translate(0 60.178)">
    <path id="Path_99" data-name="Path 99" d="M-3598.036,4859.509c-.348-.771-.713-.789-1.043-.8-.267-.008-.579-.008-.891-.008a1.711,1.711,0,0,0-1.24.576,5.166,5.166,0,0,0-1.623,3.86,9,9,0,0,0,1.9,4.782c.232.311,3.218,5.129,7.935,6.983,3.923,1.545,4.725,1.232,5.572,1.153a4.723,4.723,0,0,0,3.138-2.2,3.868,3.868,0,0,0,.267-2.2c-.115-.2-.428-.312-.891-.543s-2.746-1.349-3.174-1.509-.74-.229-1.043.232-1.2,1.5-1.471,1.809-.544.346-1.008.115a12.61,12.61,0,0,1-3.735-2.3,13.8,13.8,0,0,1-2.585-3.2c-.268-.461-.027-.71.2-.939.2-.205.464-.542.7-.809a2.963,2.963,0,0,0,.464-.771.852.852,0,0,0-.035-.807C-3596.717,4862.713-3597.626,4860.424-3598.036,4859.509Z" transform="translate(3602.833 -4858.702)" fill="#fff" fill-rule="evenodd"/>
  </g>
  <g id="Group_4037" data-name="Group 4037" transform="translate(0 117.282)">
    <path id="Path_99-2" data-name="Path 99" d="M-3598.036,4859.509c-.348-.771-.713-.789-1.043-.8-.267-.008-.579-.008-.891-.008a1.711,1.711,0,0,0-1.24.576,5.166,5.166,0,0,0-1.623,3.86,9,9,0,0,0,1.9,4.782c.232.311,3.218,5.129,7.935,6.983,3.923,1.545,4.725,1.232,5.572,1.153a4.723,4.723,0,0,0,3.138-2.2,3.868,3.868,0,0,0,.267-2.2c-.115-.2-.428-.312-.891-.543s-2.746-1.349-3.174-1.509-.74-.229-1.043.232-1.2,1.5-1.471,1.809-.544.346-1.008.115a12.61,12.61,0,0,1-3.735-2.3,13.8,13.8,0,0,1-2.585-3.2c-.268-.461-.027-.71.2-.939.2-.205.464-.542.7-.809a2.963,2.963,0,0,0,.464-.771.852.852,0,0,0-.035-.807C-3596.717,4862.713-3597.626,4860.424-3598.036,4859.509Z" transform="translate(3602.833 -4858.702)" fill="#fff" fill-rule="evenodd"/>
  </g>
  <g id="Group_4038" data-name="Group 4038" transform="translate(0 174.45)">
    <path id="Path_99-3" data-name="Path 99" d="M-3598.036,4859.509c-.348-.771-.713-.789-1.043-.8-.267-.008-.579-.008-.891-.008a1.711,1.711,0,0,0-1.24.576,5.166,5.166,0,0,0-1.623,3.86,9,9,0,0,0,1.9,4.782c.232.311,3.218,5.129,7.935,6.983,3.923,1.545,4.725,1.232,5.572,1.153a4.723,4.723,0,0,0,3.138-2.2,3.868,3.868,0,0,0,.267-2.2c-.115-.2-.428-.312-.891-.543s-2.746-1.349-3.174-1.509-.74-.229-1.043.232-1.2,1.5-1.471,1.809-.544.346-1.008.115a12.61,12.61,0,0,1-3.735-2.3,13.8,13.8,0,0,1-2.585-3.2c-.268-.461-.027-.71.2-.939.2-.205.464-.542.7-.809a2.963,2.963,0,0,0,.464-.771.852.852,0,0,0-.035-.807C-3596.717,4862.713-3597.626,4860.424-3598.036,4859.509Z" transform="translate(3602.833 -4858.702)" fill="#fff" fill-rule="evenodd"/>
  </g>
  <g id="Group_4039" data-name="Group 4039" transform="translate(0 217.757)">
    <path id="Path_626" data-name="Path 626" d="M189.74,21.16a9.442,9.442,0,0,1,9.44,9.44c0,4.315-2.556,7.8-5,11.138-1.691,2.307-3.329,4.541-3.951,6.862a.5.5,0,0,1-.974,0c-.621-2.321-2.259-4.556-3.95-6.862-2.447-3.336-5-6.822-5-11.138a9.414,9.414,0,0,1,2.764-6.676l.03-.027a9.411,9.411,0,0,1,6.645-2.737Zm3.831,25.025a.841.841,0,1,1,.481-1.611,7.792,7.792,0,0,1,2.767,1.38,2.939,2.939,0,0,1,1.191,2.242c0,1.29-1.021,2.4-2.672,3.146a15.276,15.276,0,0,1-11.193,0c-1.65-.747-2.672-1.856-2.672-3.146a2.937,2.937,0,0,1,1.191-2.242,7.792,7.792,0,0,1,2.767-1.38.841.841,0,1,1,.48,1.611,6.157,6.157,0,0,0-2.169,1.057,1.352,1.352,0,0,0-.585.953c0,.569.642,1.145,1.679,1.614a13.682,13.682,0,0,0,9.813,0c1.037-.47,1.678-1.046,1.678-1.615a1.35,1.35,0,0,0-.585-.953,6.148,6.148,0,0,0-2.169-1.057Zm-.808-18.607a4.278,4.278,0,0,0-6.021-.025l-.024.026a4.275,4.275,0,0,0,6.021,6.07l.024-.026a4.275,4.275,0,0,0,0-6.045Z" transform="translate(-180.3 -21.16)" fill="#fff" fill-rule="evenodd"/>
  </g>
  <g id="Group_4040" data-name="Group 4040" transform="translate(0 8)">
    <path id="Path_98" data-name="Path 98" d="M-3800.958,4865.067h-15.1a1.915,1.915,0,0,0-1.888,1.93v.643a.85.85,0,0,1,.461.135l8.979,5.713,8.98-5.713a.847.847,0,0,1,.46-.135V4867A1.915,1.915,0,0,0-3800.958,4865.067Zm1.888,4.448-8.979,5.715a.862.862,0,0,1-.922,0l-8.979-5.715v9.067a1.915,1.915,0,0,0,1.888,1.931h15.1a1.915,1.915,0,0,0,1.888-1.931Z" transform="translate(3817.95 -4865.067)" fill="#fff" fill-rule="evenodd"/>
  </g>
</svg>
