<svg id="Group_2" data-name="Group 2" xmlns="http://www.w3.org/2000/svg" xmlns:xlink="http://www.w3.org/1999/xlink" width="328.827" height="93.744" viewBox="0 0 328.827 93.744">
  <defs>
    <clipPath id="clip-path">
      <rect id="Rectangle_2" data-name="Rectangle 2" width="328.827" height="93.744" fill="none"/>
    </clipPath>
  </defs>
  <g id="Group_1" data-name="Group 1" clip-path="url(#clip-path)">
    <path id="Path_1" data-name="Path 1" d="M164.306,1.36H155.8v17.5h7.405q4.711,0,6.578-.918a4.445,4.445,0,0,0,2.417-3h.674v8.691H172.2a4.451,4.451,0,0,0-2.417-3q-1.867-.917-6.578-.917H155.8V33.612a16.057,16.057,0,0,0,.489,4.865,2.75,2.75,0,0,0,1.836,1.745v.734h-9.364v-.734a2.757,2.757,0,0,0,1.836-1.775,16.152,16.152,0,0,0,.489-4.835V7.847a16.494,16.494,0,0,0-.489-4.865,2.593,2.593,0,0,0-1.836-1.744V.5h26.867l.673,7.466-.673.184A9.978,9.978,0,0,0,171.5,2.89a14.43,14.43,0,0,0-7.191-1.53" transform="translate(-40.411 -0.137)" fill="#f3f2fa"/>
    <path id="Path_2" data-name="Path 2" d="M196.092,33.047a15.825,15.825,0,0,0,.52,4.927,2.836,2.836,0,0,0,1.867,1.8v.735h-9.3v-.735A2.677,2.677,0,0,0,191.043,38a17.781,17.781,0,0,0,.46-4.958V8.873a9.9,9.9,0,0,0-.521-3.948,2.4,2.4,0,0,0-1.8-1.254V2.815L195.358,0h.734Z" transform="translate(-51.39)" fill="#f3f2fa"/>
    <path id="Path_3" data-name="Path 3" d="M232.877,36.329l.551.489q-6.059,8.324-13.893,8.324a13.6,13.6,0,0,1-4.865-.918,15.512,15.512,0,0,1-4.468-2.631,12.262,12.262,0,0,1-3.3-4.559,15.539,15.539,0,0,1-1.255-6.334A15.33,15.33,0,0,1,210.2,19.255a14.985,14.985,0,0,1,10.863-4.467,11.992,11.992,0,0,1,8.568,3,10.125,10.125,0,0,1,3.3,7.344h-22.95a20.373,20.373,0,0,0-.184,2.755,13.832,13.832,0,0,0,3.458,9.791,11.876,11.876,0,0,0,9.149,3.733q5.936,0,10.465-5.08m-13.708-20.5a7.735,7.735,0,0,0-5.937,2.326,11.869,11.869,0,0,0-3.059,6.242h18.053a11.027,11.027,0,0,0-2.907-5.936,7.987,7.987,0,0,0-6.15-2.632" transform="translate(-55.863 -4.017)" fill="#f3f2fa"/>
    <path id="Path_4" data-name="Path 4" d="M274.636,36.351l.551.489q-6.059,8.324-13.893,8.324a13.763,13.763,0,0,1-5.018-.948,15.15,15.15,0,0,1-4.467-2.693,12.175,12.175,0,0,1-3.214-4.559,15.837,15.837,0,0,1-1.194-6.243,16.891,16.891,0,0,1,1.837-7.649,15.609,15.609,0,0,1,5.079-5.936,11.961,11.961,0,0,1,6.977-2.265,13.944,13.944,0,0,1,7.069,1.775,9.932,9.932,0,0,1,4.131,3.856,1.279,1.279,0,0,1-.307,1.682,1.492,1.492,0,0,1-1.835.153,3.576,3.576,0,0,1-1.01-1.1q-.521-.794-1.071-1.682a11.577,11.577,0,0,0-1.377-1.775,6.306,6.306,0,0,0-2.2-1.469,8.21,8.21,0,0,0-3.213-.582,8.707,8.707,0,0,0-7.007,3.642,13.278,13.278,0,0,0-2.907,8.538,13.832,13.832,0,0,0,3.458,9.791,11.876,11.876,0,0,0,9.149,3.733q5.936,0,10.465-5.08" transform="translate(-67.207 -4.04)" fill="#f3f2fa"/>
    <path id="Path_5" data-name="Path 5" d="M309.263,36.045q2.2,3.734,4.651,3.795v.672h-3.183a5.839,5.839,0,0,1-5.141-2.753l-9.241-14.2-2.2,2.08v7.405a15.828,15.828,0,0,0,.52,4.927,2.836,2.836,0,0,0,1.867,1.8v.734h-9.3v-.734A2.677,2.677,0,0,0,289.1,38a17.78,17.78,0,0,0,.46-4.958V8.872a9.9,9.9,0,0,0-.521-3.948,2.4,2.4,0,0,0-1.8-1.254V2.815L293.413,0h.734V24.6q8.384-8.078,9.364-9a3.812,3.812,0,0,0,.948-1.5,1.675,1.675,0,0,0-.153-1.5,1.886,1.886,0,0,0-1.714-.674v-.8h7.589v.8a3.931,3.931,0,0,0-2.3.7,39.986,39.986,0,0,0-3.825,3.458l-4.468,4.345Z" transform="translate(-78.027 0)" fill="#f3f2fa"/>
    <path id="Path_6" data-name="Path 6" d="M148.762,113.089v-.735a2.754,2.754,0,0,0,1.836-1.774,16.128,16.128,0,0,0,.49-4.835V79.98a16.464,16.464,0,0,0-.49-4.866,2.593,2.593,0,0,0-1.836-1.744v-.735q8.935-.059,12.056-.06a24.634,24.634,0,0,1,7.344.979A11.84,11.84,0,0,1,173,76.217a10.394,10.394,0,0,1,3.3,7.8,11.726,11.726,0,0,1-4.253,9.485q-4.254,3.552-12.148,3.55h-4.1v8.691a16.061,16.061,0,0,0,.489,4.865,2.749,2.749,0,0,0,1.836,1.744v.735ZM155.8,96.2h3.978q5.507,0,8.476-2.846t2.968-7.986a14.984,14.984,0,0,0-.642-4.5,11.071,11.071,0,0,0-2.02-3.734,9.037,9.037,0,0,0-3.825-2.631,16.071,16.071,0,0,0-5.814-.949H155.8Z" transform="translate(-40.411 -19.715)" fill="#f3f2fa"/>
    <path id="Path_7" data-name="Path 7" d="M216.617,112.049a7.662,7.662,0,0,0,.459,3.029,1.838,1.838,0,0,0,1.867,1.01v.734h-2.264a4.6,4.6,0,0,1-4.651-4.651V111.5q-5.691,5.936-11.444,5.936-9,0-9-10.71V95.832a9.882,9.882,0,0,0-.52-3.948,2.4,2.4,0,0,0-1.806-1.255v-.857l6.182-2.326h.734v18.237q0,5.019,1.53,7.345t5.018,2.325q4.59,0,9.3-4.957V95.832a9.9,9.9,0,0,0-.52-3.948,2.4,2.4,0,0,0-1.806-1.255v-.857l6.12-2.326h.8Z" transform="translate(-51.413 -23.755)" fill="#f3f2fa"/>
    <path id="Path_8" data-name="Path 8" d="M249.647,82.927a11.773,11.773,0,0,1,9.18,4.039,14.85,14.85,0,0,1,3.61,10.281,17.711,17.711,0,0,1-1.713,7.742,14.2,14.2,0,0,1-5.294,5.875,15.42,15.42,0,0,1-8.293,2.356,14.442,14.442,0,0,1-5.324-1.009,14.962,14.962,0,0,1-4.345-2.54l-2.509,3H234.1V81.029a9.9,9.9,0,0,0-.52-3.947,2.4,2.4,0,0,0-1.8-1.254v-.857l6.181-2.815h.734V86.843q5.876-3.916,10.954-3.916M249.036,112a7.958,7.958,0,0,0,6.763-3.03q2.294-3.028,2.3-8.353a22.921,22.921,0,0,0-.613-5.2,22.086,22.086,0,0,0-1.867-5.08,10.512,10.512,0,0,0-3.519-3.978,9.074,9.074,0,0,0-5.2-1.53,14.613,14.613,0,0,0-8.2,2.937v15.361a9.079,9.079,0,0,0,3.4,6.059A10.2,10.2,0,0,0,249.036,112" transform="translate(-62.963 -19.601)" fill="#f3f2fa"/>
    <path id="Path_9" data-name="Path 9" d="M283.73,105.2a15.826,15.826,0,0,0,.52,4.927,2.836,2.836,0,0,0,1.867,1.8v.735h-9.3v-.735a2.676,2.676,0,0,0,1.866-1.774,17.78,17.78,0,0,0,.46-4.958V81.028a9.915,9.915,0,0,0-.52-3.948,2.4,2.4,0,0,0-1.806-1.254V74.97L283,72.155h.734Z" transform="translate(-75.197 -19.601)" fill="#f3f2fa"/>
    <path id="Path_10" data-name="Path 10" d="M300.113,105.2a15.8,15.8,0,0,0,.521,4.927,2.832,2.832,0,0,0,1.866,1.8v.735h-9.3v-.735a2.678,2.678,0,0,0,1.866-1.774,17.761,17.761,0,0,0,.459-4.958V92.167a9.916,9.916,0,0,0-.52-3.918,2.386,2.386,0,0,0-1.8-1.285v-.857l6.181-2.815h.734Zm-.336-27.508a3.251,3.251,0,0,1-4.59,0,3.054,3.054,0,0,1-.948-2.234,3.2,3.2,0,0,1,.948-2.356,3.288,3.288,0,0,1,4.621,0,3.258,3.258,0,0,1,.918,2.356,3.058,3.058,0,0,1-.949,2.234" transform="translate(-79.647 -19.601)" fill="#f3f2fa"/>
    <path id="Path_11" data-name="Path 11" d="M321.915,99.389a6.019,6.019,0,0,0,.857.306q1.712.552,2.6.857a17.557,17.557,0,0,1,2.324,1.071,8.689,8.689,0,0,1,2.173,1.53,7.276,7.276,0,0,1,1.315,2.051,6.9,6.9,0,0,1,.583,2.876,8.559,8.559,0,0,1-2.846,6.548q-2.846,2.632-7.925,2.631-6.059,0-9.608-3.427-2.2-2.079-1.53-3.427a1.682,1.682,0,0,1,.428-.489,1.522,1.522,0,0,1,1.5-.276,2.679,2.679,0,0,1,1.285,1.011q.519.734,1.346,1.744t1.623,1.959a6.312,6.312,0,0,0,2.111,1.591,6.4,6.4,0,0,0,2.846.642,8.821,8.821,0,0,0,5.569-1.622,5.018,5.018,0,0,0,2.08-4.131,4.808,4.808,0,0,0-.519-2.234,6.617,6.617,0,0,0-1.162-1.652,7.28,7.28,0,0,0-1.99-1.285q-1.346-.644-2.264-.98t-2.692-.887a38.1,38.1,0,0,1-4.039-1.5,18.2,18.2,0,0,1-3.243-1.867,6.234,6.234,0,0,1-2.173-2.6,5.856,5.856,0,0,1-.336-3.335,8.578,8.578,0,0,1,3-5.171,10.278,10.278,0,0,1,7.1-2.3,14.152,14.152,0,0,1,3.672.459,9.271,9.271,0,0,1,2.723,1.133,10.63,10.63,0,0,1,1.774,1.469,2.8,2.8,0,0,1,.858,1.5,2.877,2.877,0,0,1-.031,1.132,1.2,1.2,0,0,1-1.56.674,2.909,2.909,0,0,1-1.744-1.653,6.747,6.747,0,0,0-6.549-4.039,6.576,6.576,0,0,0-4.1,1.408,4.3,4.3,0,0,0-1.836,3.55,4.676,4.676,0,0,0,.581,2.325,5.359,5.359,0,0,0,1.9,1.867,17.3,17.3,0,0,0,2.57,1.347q1.253.52,3.335,1.193" transform="translate(-84.131 -23.641)" fill="#f3f2fa"/>
    <path id="Path_12" data-name="Path 12" d="M369.415,105.2a16.736,16.736,0,0,0,.488,4.958,2.754,2.754,0,0,0,1.837,1.774v.735H362.5v-.735a2.754,2.754,0,0,0,1.835-1.774,16.715,16.715,0,0,0,.49-4.958V93.268q0-4.344-1.928-6.4a6.837,6.837,0,0,0-5.232-2.05,6.982,6.982,0,0,0-3.581,1.071,10.489,10.489,0,0,0-2.723,2.173l-.918,1.041V105.2a15.854,15.854,0,0,0,.519,4.927,2.836,2.836,0,0,0,1.868,1.8v.735h-9.3v-.735a2.675,2.675,0,0,0,1.865-1.774,17.784,17.784,0,0,0,.459-4.958V80.538a9.883,9.883,0,0,0-.521-3.916,2.382,2.382,0,0,0-1.8-1.285v-.857l6.18-2.326h.735v15.6c.08-.122.213-.295.4-.519A15.006,15.006,0,0,1,352,86.077a13.055,13.055,0,0,1,1.9-1.468,11.249,11.249,0,0,1,2.692-1.163,11.877,11.877,0,0,1,3.519-.52,9.015,9.015,0,0,1,6.855,2.57q2.447,2.57,2.449,7.649Z" transform="translate(-93.32 -19.601)" fill="#f3f2fa"/>
    <path id="Path_13" data-name="Path 13" d="M413.107,108.485l.551.489Q407.6,117.3,399.766,117.3a13.609,13.609,0,0,1-4.866-.918,15.528,15.528,0,0,1-4.467-2.631,12.251,12.251,0,0,1-3.3-4.559,15.5,15.5,0,0,1-1.255-6.334,15.329,15.329,0,0,1,4.558-11.444A14.988,14.988,0,0,1,401.3,86.944a11.985,11.985,0,0,1,8.566,3,10.121,10.121,0,0,1,3.306,7.344H390.22a20.138,20.138,0,0,0-.184,2.755,13.838,13.838,0,0,0,3.457,9.791,11.878,11.878,0,0,0,9.149,3.733q5.936,0,10.465-5.08M399.4,87.984a7.736,7.736,0,0,0-5.937,2.326,11.87,11.87,0,0,0-3.06,6.242h18.054a11.027,11.027,0,0,0-2.907-5.936,7.988,7.988,0,0,0-6.15-2.632" transform="translate(-104.823 -23.618)" fill="#f3f2fa"/>
    <path id="Path_14" data-name="Path 14" d="M443.1,87.388a2.054,2.054,0,0,1,1.62,1.254,1.883,1.883,0,0,1-.182,1.745,1.631,1.631,0,0,1-1.438.8,5.711,5.711,0,0,1-1.5-.276,11.557,11.557,0,0,0-1.622-.366,6.628,6.628,0,0,0-2.081.213q-2.57.675-3.855,4.284v14.2a15.8,15.8,0,0,0,.52,4.927,2.838,2.838,0,0,0,1.866,1.8v.734h-9.3v-.734A2.678,2.678,0,0,0,429,114.192a17.794,17.794,0,0,0,.46-4.957V95.772a9.89,9.89,0,0,0-.521-3.948,2.4,2.4,0,0,0-1.806-1.255v-.857l6.182-2.326h.734v5.57a11.344,11.344,0,0,1,3.977-4.437,6.251,6.251,0,0,1,5.08-1.133" transform="translate(-116.03 -23.696)" fill="#f3f2fa"/>
    <path id="Path_15" data-name="Path 15" d="M19.355,93.855H0V.407H93.259V93.855H37.576V75.029H74.32V19.119H18.863V37.945H55.948V56.657H18.863Z" transform="translate(0 -0.111)" fill="#f3f2fa"/>
  </g>
</svg>
